<svg width="17" height="16" viewBox="0 0 17 16" fill="none" stroke="currentColor" xmlns="http://www.w3.org/2000/svg">
<path d="M2.66699 4H4.00033H14.667"  stroke-width="2" stroke-linecap="round" stroke-linejoin="round"/>
<path d="M6 4.00004V2.66671C6 2.31309 6.14048 1.97395 6.39052 1.7239C6.64057 1.47385 6.97971 1.33337 7.33333 1.33337H10C10.3536 1.33337 10.6928 1.47385 10.9428 1.7239C11.1929 1.97395 11.3333 2.31309 11.3333 2.66671V4.00004M13.3333 4.00004V13.3334C13.3333 13.687 13.1929 14.0261 12.9428 14.2762C12.6928 14.5262 12.3536 14.6667 12 14.6667H5.33333C4.97971 14.6667 4.64057 14.5262 4.39052 14.2762C4.14048 14.0261 4 13.687 4 13.3334V4.00004H13.3333Z"  stroke-width="2" stroke-linecap="round" stroke-linejoin="round"/>
<path d="M10 7.33337V11.3334"  stroke-width="2" stroke-linecap="round" stroke-linejoin="round"/>
<path d="M7.33398 7.33337V11.3334"  stroke-width="2" stroke-linecap="round" stroke-linejoin="round"/>
</svg>
