<svg width="16" height="17" viewBox="0 0 16 17" fill="none" xmlns="http://www.w3.org/2000/svg">
<path d="M4.66602 5.16667H3.99935C3.64573 5.16667 3.30659 5.30714 3.05654 5.55719C2.80649 5.80724 2.66602 6.14638 2.66602 6.5V12.5C2.66602 12.8536 2.80649 13.1928 3.05654 13.4428C3.30659 13.6929 3.64573 13.8333 3.99935 13.8333H9.99935C10.353 13.8333 10.6921 13.6929 10.9422 13.4428C11.1922 13.1928 11.3327 12.8536 11.3327 12.5V11.8333M10.666 3.83333L12.666 5.83333M13.5893 4.89007C13.8519 4.62751 13.9994 4.27139 13.9994 3.90007C13.9994 3.52875 13.8519 3.17264 13.5893 2.91007C13.3268 2.64751 12.9707 2.5 12.5993 2.5C12.228 2.5 11.8719 2.64751 11.6093 2.91007L5.99935 8.50007V10.5001H7.99935L13.5893 4.89007Z" stroke="#656565" stroke-width="2" stroke-linecap="round" stroke-linejoin="round"/>
</svg>
