<svg width="17" height="16" viewBox="0 0 17 16" fill="none" stroke="currentColor" xmlns="http://www.w3.org/2000/svg">
<g clip-path="url(#clip0_262_3128)">
<path d="M15.3333 7.38662V7.99995C15.3325 9.43756 14.867 10.8364 14.0062 11.9878C13.1454 13.1393 11.9355 13.9816 10.5569 14.3892C9.17829 14.7968 7.70484 14.7479 6.35631 14.2497C5.00779 13.7515 3.85644 12.8307 3.07397 11.6247C2.29151 10.4186 1.91986 8.99199 2.01445 7.55749C2.10904 6.12299 2.6648 4.7575 3.59885 3.66467C4.5329 2.57183 5.79519 1.81021 7.19746 1.49338C8.59973 1.17656 10.0668 1.32151 11.38 1.90662" stroke-width="2" stroke-linecap="round" stroke-linejoin="round"/>
<path d="M15.3337 2.66663L8.66699 9.33996L6.66699 7.33996" stroke="#121212" stroke-width="2" stroke-linecap="round" stroke-linejoin="round"/>
</g>
<defs>
<clipPath id="clip0_262_3128">
<rect width="16" height="16" fill="white" transform="translate(0.666992)"/>
</clipPath>
</defs>
</svg>
